# xmcd
#
# Track frame offsets:
#	150
#	12491
#	28139
#	40056
#	52474
#	64991
#	76318
#	86877
#	104846
#	115462
#	128415
#	141376
#	153174
#	163448
#	174909
#
# Disc length: 2474 seconds
#
# Revision: 0
# Processed by: cddbd v1.5.2PL0 Copyright (c) Steve Scherf et al.
# Submitted via: audiograbber 1.83.01
#
DISCID=da09a80f
DTITLE=Various Artist - The Soul Story: Volume 8 - Disc 2
DYEAR=2006
DGENRE=Soul
TTITLE0=Jr. Walker and the All Stars - (I'm A) Road Runner
TTITLE1=James Brown - Lost Someone
TTITLE2=The Temptations - The Way You Do the Things You Do
TTITLE3=Marvin Gaye - Stubborn Kind Of Fellow
TTITLE4=The Supremes - You Can't Hurry Love
TTITLE5=Bobby Bland - Ain't Nothing You Can Do
TTITLE6=Etta James - Tell Mama
TTITLE7=Lou Rawls - Dead End Street
TTITLE8=Martha and the Vandellas - Come And Get These Memories
TTITLE9=Mitty Collier - I Had A Talk With My Man Last Night
TTITLE10=Kim Weston - Take Me In Your Arms (Rock Me A Little While)
TTITLE11=The Elgins - Darling Baby
TTITLE12=Shirley Ellis - The Nitty Gritty
TTITLE13=Bobby Moore and the Rhythm Aces - Searching For My Love
TTITLE14=The Impressions - Gypsy Woman
EXTD=
EXTT0=
EXTT1=
EXTT2=
EXTT3=
EXTT4=
EXTT5=
EXTT6=
EXTT7=
EXTT8=
EXTT9=
EXTT10=
EXTT11=
EXTT12=
EXTT13=
EXTT14=
PLAYORDER=
